<?xml version="1.0" standalone="no"?>
<!DOCTYPE svg PUBLIC "-//W3C//DTD SVG 20010904//EN"
 "http://www.w3.org/TR/2001/REC-SVG-20010904/DTD/svg10.dtd">
<svg version="1.0" xmlns="http://www.w3.org/2000/svg"
 width="128.000000pt" height="128.000000pt" viewBox="0 0 128.000000 128.000000"
 preserveAspectRatio="xMidYMid meet">
<metadata>
Created by potrace 1.16, written by Peter Selinger 2001-2019
</metadata>
<g transform="translate(0.000000,128.000000) scale(0.100000,-0.100000)"
fill="#000000" stroke="none">
<path d="M502 1265 c-35 -8 -102 -33 -150 -56 -210 -101 -352 -331 -352 -569
0 -238 142 -468 352 -569 84 -41 191 -70 255 -71 30 0 32 2 38 48 17 123 44
183 172 375 126 189 174 290 229 482 4 12 -19 -4 -57 -42 -65 -62 -162 -129
-256 -177 -29 -14 -54 -26 -57 -26 -6 0 21 115 45 187 11 35 42 106 69 158 27
52 45 95 40 95 -31 0 -308 -135 -390 -190 -30 -20 -61 -40 -69 -45 -25 -15 -9
131 22 190 29 57 107 136 187 189 l55 36 -35 -1 c-19 0 -63 -7 -98 -14z"/>
</g>
</svg>
